<?xml version="1.0" standalone="no"?>
<!DOCTYPE svg PUBLIC "-//W3C//DTD SVG 20010904//EN"
 "http://www.w3.org/TR/2001/REC-SVG-20010904/DTD/svg10.dtd">
<svg version="1.0" xmlns="http://www.w3.org/2000/svg"
 width="192.000000pt" height="192.000000pt" viewBox="0 0 192.000000 192.000000"
 preserveAspectRatio="xMidYMid meet">
<metadata>
Created by potrace 1.11, written by Peter Selinger 2001-2013
</metadata>
<g transform="translate(0.000000,192.000000) scale(0.100000,-0.100000)"
fill="#000000" stroke="none">
<path d="M835 1864 c-11 -2 -45 -9 -75 -15 -68 -14 -206 -65 -242 -91 -15 -10
-30 -17 -35 -16 -8 2 -20 -8 -113 -89 -21 -18 -43 -33 -49 -33 -6 0 -11 -6
-11 -13 0 -7 -13 -26 -30 -42 -16 -16 -42 -46 -56 -67 -15 -20 -31 -35 -37
-31 -5 3 -7 0 -5 -8 3 -8 -5 -30 -17 -49 -27 -43 -78 -175 -96 -250 -9 -34
-14 -110 -14 -200 0 -90 5 -166 14 -200 53 -214 176 -403 344 -529 43 -33 55
-47 45 -54 -9 -6 -8 -7 5 -3 9 3 47 -10 85 -29 208 -104 485 -124 702 -50 120
41 227 103 320 185 14 12 30 25 35 28 45 30 164 216 203 317 141 369 34 792
-260 1030 -34 28 -70 58 -80 68 -10 9 -18 15 -18 12 0 -3 -17 5 -37 18 -46 29
-148 70 -229 92 -57 16 -305 30 -349 19z m295 -55 c61 -11 84 -19 185 -62 238
-101 418 -314 490 -583 23 -84 30 -248 15 -341 -19 -118 -98 -321 -120 -308
-5 3 -7 0 -4 -8 6 -17 -67 -116 -127 -173 -102 -97 -228 -171 -364 -214 -109
-35 -314 -40 -439 -11 -100 23 -261 94 -251 111 3 5 0 7 -8 4 -15 -5 -86 44
-151 105 -57 53 -137 163 -131 178 2 8 0 11 -5 8 -9 -6 -58 79 -63 112 -2 10
-8 27 -14 38 -53 95 -66 366 -25 510 28 99 91 237 105 228 6 -3 7 -1 4 4 -21
34 251 308 285 287 4 -3 8 -1 8 5 0 16 79 51 97 44 11 -4 14 -2 9 5 -9 15 137
60 234 71 81 9 182 6 270 -10z"/>
<path d="M475 1610 c-3 -5 -1 -10 4 -10 6 0 11 5 11 10 0 6 -2 10 -4 10 -3 0
-8 -4 -11 -10z"/>
<path d="M1526 1541 c-4 -5 -2 -12 3 -15 5 -4 12 -2 15 3 4 5 2 12 -3 15 -5 4
-12 2 -15 -3z"/>
<path d="M531 1393 c-1 -7 -12 -13 -26 -13 l-25 0 0 -102 c-1 -127 -1 -349 0
-570 l0 -168 45 0 45 0 -5 368 -5 367 22 -45 c95 -191 137 -283 133 -290 -3
-5 -1 -10 4 -12 14 -5 69 -122 64 -135 -3 -7 0 -13 6 -13 5 0 28 -39 51 -87
l40 -86 -22 -24 c-12 -13 -17 -23 -11 -23 6 0 13 7 17 15 8 22 25 18 38 -10
10 -22 17 -25 62 -25 50 1 51 1 70 43 10 23 39 85 63 137 89 189 102 216 128
275 15 33 49 105 75 160 26 55 50 107 53 115 3 8 6 -19 6 -60 0 -68 -1 -73
-14 -56 -8 11 -15 15 -15 9 0 -6 7 -16 16 -23 13 -12 15 -51 12 -304 l-3 -291
43 -3 c38 -3 42 -1 43 20 0 13 1 121 0 240 0 125 4 220 9 223 5 3 6 15 1 28
-5 12 -9 89 -8 170 0 81 -2 149 -4 151 -5 5 -46 8 -89 7 -35 -1 -37 -4 -70
-75 -19 -41 -39 -71 -44 -68 -5 3 -6 0 -2 -6 9 -14 -155 -363 -167 -355 -6 3
-7 1 -3 -5 7 -12 -35 -104 -63 -136 -13 -16 -13 -18 -1 -12 12 6 12 5 -1 -6
-9 -7 -14 -19 -11 -27 3 -9 0 -11 -8 -6 -9 6 -12 4 -8 -7 4 -8 2 -21 -3 -29
-8 -12 -10 -12 -19 1 -5 8 -8 21 -5 28 3 8 0 10 -6 6 -8 -4 -9 1 -4 16 4 13 3
20 -2 17 -5 -3 -24 26 -42 64 -33 69 -33 70 -15 92 19 22 19 22 -2 4 -21 -17
-21 -16 -54 55 -18 40 -53 115 -76 166 -24 51 -54 116 -66 145 -12 28 -33 71
-46 95 -21 36 -28 42 -57 42 -18 0 -36 6 -38 13 -4 10 -6 10 -6 0z"/>
<path d="M1685 1371 c-3 -5 -2 -12 3 -15 5 -3 9 1 9 9 0 17 -3 19 -12 6z"/>
<path d="M710 1280 c-9 -6 -10 -10 -3 -10 6 0 15 5 18 10 8 12 4 12 -15 0z"/>
<path d="M1216 1272 c-3 -5 1 -9 9 -9 8 0 12 4 9 9 -3 4 -7 8 -9 8 -2 0 -6 -4
-9 -8z"/>
<path d="M1108 1116 c-19 -14 -23 -26 -10 -26 4 0 13 9 20 20 14 23 13 24 -10
6z"/>
<path d="M240 1099 c0 -5 5 -7 10 -4 6 3 10 8 10 11 0 2 -4 4 -10 4 -5 0 -10
-5 -10 -11z"/>
<path d="M815 1100 c-3 -5 -1 -10 4 -10 6 0 11 5 11 10 0 6 -2 10 -4 10 -3 0
-8 -4 -11 -10z"/>
<path d="M1595 1040 c-3 -6 1 -7 9 -4 18 7 21 14 7 14 -6 0 -13 -4 -16 -10z"/>
<path d="M1240 970 c-13 -8 -12 -10 3 -10 9 0 17 5 17 10 0 12 -1 12 -20 0z"/>
<path d="M390 960 c0 -5 5 -10 10 -10 6 0 10 5 10 10 0 6 -4 10 -10 10 -5 0
-10 -4 -10 -10z"/>
<path d="M950 960 c0 -5 5 -10 10 -10 6 0 10 5 10 10 0 6 -4 10 -10 10 -5 0
-10 -4 -10 -10z"/>
<path d="M310 880 c-9 -6 -10 -10 -3 -10 6 0 15 5 18 10 8 12 4 12 -15 0z"/>
<path d="M749 753 c-13 -16 -12 -17 4 -4 9 7 17 15 17 17 0 8 -8 3 -21 -13z"/>
<path d="M866 491 c-3 -5 1 -11 9 -14 9 -4 12 -1 8 9 -6 16 -10 17 -17 5z"/>
<path d="M310 480 c0 -5 5 -10 11 -10 5 0 7 5 4 10 -3 6 -8 10 -11 10 -2 0 -4
-4 -4 -10z"/>
<path d="M1035 480 c-3 -6 1 -7 9 -4 18 7 21 14 7 14 -6 0 -13 -4 -16 -10z"/>
<path d="M390 400 c0 -5 5 -10 10 -10 6 0 10 5 10 10 0 6 -4 10 -10 10 -5 0
-10 -4 -10 -10z"/>
<path d="M950 400 c0 -5 5 -10 10 -10 6 0 10 5 10 10 0 6 -4 10 -10 10 -5 0
-10 -4 -10 -10z"/>
<path d="M1510 407 c0 -2 14 -16 30 -32 17 -16 30 -24 30 -19 0 6 -13 20 -30
32 -16 13 -30 21 -30 19z"/>
<path d="M476 317 c3 -10 9 -15 12 -12 3 3 0 11 -7 18 -10 9 -11 8 -5 -6z"/>
<path d="M1100 260 c0 -5 5 -10 10 -10 6 0 10 5 10 10 0 6 -4 10 -10 10 -5 0
-10 -4 -10 -10z"/>
</g>
</svg>
